{
	"asset":{
		"generator":"Khronos glTF Blender I/O v5.1.19",
		"version":"2.0"
	},
	"scene":0,
	"scenes":[
		{
			"name":"Scene",
			"nodes":[
				0,
				1,
				2,
				3
			]
		}
	],
	"nodes":[
		{
			"mesh":0,
			"name":"stage"
		},
		{
			"mesh":1,
			"name":"\u5e73\u9762",
			"rotation":[
				0.7071068286895752,
				0,
				0,
				0.7071068286895752
			],
			"translation":[
				0,
				1,
				-9
			]
		},
		{
			"mesh":2,
			"name":"\u7acb\u65b9\u4f53",
			"scale":[
				1,
				1,
				2
			],
			"translation":[
				5,
				1,
				3
			]
		},
		{
			"mesh":3,
			"name":"\u7acb\u65b9\u4f53.002",
			"translation":[
				-4,
				1,
				2
			]
		}
	],
	"materials":[
		{
			"doubleSided":true,
			"name":"\u30de\u30c6\u30ea\u30a2\u30eb.001",
			"pbrMetallicRoughness":{
				"baseColorTexture":{
					"index":0
				}
			}
		},
		{
			"doubleSided":true,
			"name":"\u30de\u30c6\u30ea\u30a2\u30eb.002",
			"pbrMetallicRoughness":{
				"baseColorTexture":{
					"index":1
				},
				"metallicFactor":0,
				"roughnessFactor":0.5
			}
		},
		{
			"doubleSided":true,
			"name":"\u30de\u30c6\u30ea\u30a2\u30eb.003",
			"pbrMetallicRoughness":{
				"baseColorFactor":[
					0.003500958438962698,
					0.01542460173368454,
					0.7874181866645813,
					1
				],
				"metallicFactor":0,
				"roughnessFactor":0.5
			}
		},
		{
			"doubleSided":true,
			"name":"\u30de\u30c6\u30ea\u30a2\u30eb.004",
			"pbrMetallicRoughness":{
				"baseColorFactor":[
					1,
					0,
					0,
					1
				],
				"metallicFactor":0,
				"roughnessFactor":0.5
			}
		},
		{
			"doubleSided":true,
			"name":"\u30de\u30c6\u30ea\u30a2\u30eb.006",
			"pbrMetallicRoughness":{
				"baseColorFactor":[
					1,
					0,
					0,
					1
				],
				"metallicFactor":0,
				"roughnessFactor":0.5
			}
		},
		{
			"doubleSided":true,
			"name":"\u30de\u30c6\u30ea\u30a2\u30eb.005",
			"pbrMetallicRoughness":{
				"baseColorFactor":[
					1,
					0,
					0,
					1
				],
				"metallicFactor":0,
				"roughnessFactor":0.5
			}
		},
		{
			"doubleSided":true,
			"name":"\u30de\u30c6\u30ea\u30a2\u30eb",
			"pbrMetallicRoughness":{
				"baseColorFactor":[
					1,
					0,
					0,
					1
				],
				"metallicFactor":0,
				"roughnessFactor":0.5
			}
		}
	],
	"meshes":[
		{
			"name":"\u5e73\u9762.001",
			"primitives":[
				{
					"attributes":{
						"POSITION":0,
						"NORMAL":1,
						"TEXCOORD_0":2
					},
					"indices":3,
					"material":0
				}
			]
		},
		{
			"name":"\u5e73\u9762",
			"primitives":[
				{
					"attributes":{
						"POSITION":4,
						"NORMAL":5,
						"TEXCOORD_0":6
					},
					"indices":7,
					"material":1
				}
			]
		},
		{
			"name":"\u7acb\u65b9\u4f53.001",
			"primitives":[
				{
					"attributes":{
						"POSITION":8,
						"NORMAL":9,
						"TEXCOORD_0":10
					},
					"indices":11,
					"material":2
				}
			]
		},
		{
			"name":"\u7acb\u65b9\u4f53.002",
			"primitives":[
				{
					"attributes":{
						"POSITION":12,
						"NORMAL":13,
						"TEXCOORD_0":14
					},
					"indices":15,
					"material":3
				},
				{
					"attributes":{
						"POSITION":16,
						"NORMAL":17,
						"TEXCOORD_0":18
					},
					"indices":19,
					"material":4
				},
				{
					"attributes":{
						"POSITION":20,
						"NORMAL":21,
						"TEXCOORD_0":22
					},
					"indices":19,
					"material":5
				},
				{
					"attributes":{
						"POSITION":23,
						"NORMAL":24,
						"TEXCOORD_0":25
					},
					"indices":26,
					"material":6
				}
			]
		}
	],
	"textures":[
		{
			"sampler":0,
			"source":0
		},
		{
			"sampler":0,
			"source":1
		}
	],
	"images":[
		{
			"mimeType":"image/png",
			"name":"gravel",
			"uri":"gravel.png"
		},
		{
			"mimeType":"image/png",
			"name":"deldel",
			"uri":"deldel.png"
		}
	],
	"accessors":[
		{
			"bufferView":0,
			"componentType":5126,
			"count":324,
			"max":[
				9,
				0,
				9
			],
			"min":[
				-9,
				0,
				-9
			],
			"type":"VEC3"
		},
		{
			"bufferView":1,
			"componentType":5126,
			"count":324,
			"type":"VEC3"
		},
		{
			"bufferView":2,
			"componentType":5126,
			"count":324,
			"type":"VEC2"
		},
		{
			"bufferView":3,
			"componentType":5123,
			"count":486,
			"type":"SCALAR"
		},
		{
			"bufferView":4,
			"componentType":5126,
			"count":4,
			"max":[
				1,
				0,
				1
			],
			"min":[
				-1,
				0,
				-1
			],
			"type":"VEC3"
		},
		{
			"bufferView":5,
			"componentType":5126,
			"count":4,
			"type":"VEC3"
		},
		{
			"bufferView":6,
			"componentType":5126,
			"count":4,
			"type":"VEC2"
		},
		{
			"bufferView":7,
			"componentType":5123,
			"count":6,
			"type":"SCALAR"
		},
		{
			"bufferView":8,
			"componentType":5126,
			"count":18,
			"max":[
				1,
				1,
				1
			],
			"min":[
				-1,
				-1,
				-1
			],
			"type":"VEC3"
		},
		{
			"bufferView":9,
			"componentType":5126,
			"count":18,
			"type":"VEC3"
		},
		{
			"bufferView":10,
			"componentType":5126,
			"count":18,
			"type":"VEC2"
		},
		{
			"bufferView":11,
			"componentType":5123,
			"count":24,
			"type":"SCALAR"
		},
		{
			"bufferView":12,
			"componentType":5126,
			"count":86,
			"max":[
				1,
				5,
				1
			],
			"min":[
				-1,
				-1,
				-3
			],
			"type":"VEC3"
		},
		{
			"bufferView":13,
			"componentType":5126,
			"count":86,
			"type":"VEC3"
		},
		{
			"bufferView":14,
			"componentType":5126,
			"count":86,
			"type":"VEC2"
		},
		{
			"bufferView":15,
			"componentType":5123,
			"count":132,
			"type":"SCALAR"
		},
		{
			"bufferView":16,
			"componentType":5126,
			"count":24,
			"max":[
				1,
				1,
				3
			],
			"min":[
				-1,
				-1,
				1
			],
			"type":"VEC3"
		},
		{
			"bufferView":17,
			"componentType":5126,
			"count":24,
			"type":"VEC3"
		},
		{
			"bufferView":18,
			"componentType":5126,
			"count":24,
			"type":"VEC2"
		},
		{
			"bufferView":19,
			"componentType":5123,
			"count":36,
			"type":"SCALAR"
		},
		{
			"bufferView":20,
			"componentType":5126,
			"count":24,
			"max":[
				1,
				3,
				3
			],
			"min":[
				-1,
				1,
				1
			],
			"type":"VEC3"
		},
		{
			"bufferView":21,
			"componentType":5126,
			"count":24,
			"type":"VEC3"
		},
		{
			"bufferView":22,
			"componentType":5126,
			"count":24,
			"type":"VEC2"
		},
		{
			"bufferView":23,
			"componentType":5126,
			"count":42,
			"max":[
				1,
				5,
				3
			],
			"min":[
				-1,
				-1,
				-5
			],
			"type":"VEC3"
		},
		{
			"bufferView":24,
			"componentType":5126,
			"count":42,
			"type":"VEC3"
		},
		{
			"bufferView":25,
			"componentType":5126,
			"count":42,
			"type":"VEC2"
		},
		{
			"bufferView":26,
			"componentType":5123,
			"count":60,
			"type":"SCALAR"
		}
	],
	"bufferViews":[
		{
			"buffer":0,
			"byteLength":3888,
			"byteOffset":0,
			"target":34962
		},
		{
			"buffer":0,
			"byteLength":3888,
			"byteOffset":3888,
			"target":34962
		},
		{
			"buffer":0,
			"byteLength":2592,
			"byteOffset":7776,
			"target":34962
		},
		{
			"buffer":0,
			"byteLength":972,
			"byteOffset":10368,
			"target":34963
		},
		{
			"buffer":0,
			"byteLength":48,
			"byteOffset":11340,
			"target":34962
		},
		{
			"buffer":0,
			"byteLength":48,
			"byteOffset":11388,
			"target":34962
		},
		{
			"buffer":0,
			"byteLength":32,
			"byteOffset":11436,
			"target":34962
		},
		{
			"buffer":0,
			"byteLength":12,
			"byteOffset":11468,
			"target":34963
		},
		{
			"buffer":0,
			"byteLength":216,
			"byteOffset":11480,
			"target":34962
		},
		{
			"buffer":0,
			"byteLength":216,
			"byteOffset":11696,
			"target":34962
		},
		{
			"buffer":0,
			"byteLength":144,
			"byteOffset":11912,
			"target":34962
		},
		{
			"buffer":0,
			"byteLength":48,
			"byteOffset":12056,
			"target":34963
		},
		{
			"buffer":0,
			"byteLength":1032,
			"byteOffset":12104,
			"target":34962
		},
		{
			"buffer":0,
			"byteLength":1032,
			"byteOffset":13136,
			"target":34962
		},
		{
			"buffer":0,
			"byteLength":688,
			"byteOffset":14168,
			"target":34962
		},
		{
			"buffer":0,
			"byteLength":264,
			"byteOffset":14856,
			"target":34963
		},
		{
			"buffer":0,
			"byteLength":288,
			"byteOffset":15120,
			"target":34962
		},
		{
			"buffer":0,
			"byteLength":288,
			"byteOffset":15408,
			"target":34962
		},
		{
			"buffer":0,
			"byteLength":192,
			"byteOffset":15696,
			"target":34962
		},
		{
			"buffer":0,
			"byteLength":72,
			"byteOffset":15888,
			"target":34963
		},
		{
			"buffer":0,
			"byteLength":288,
			"byteOffset":15960,
			"target":34962
		},
		{
			"buffer":0,
			"byteLength":288,
			"byteOffset":16248,
			"target":34962
		},
		{
			"buffer":0,
			"byteLength":192,
			"byteOffset":16536,
			"target":34962
		},
		{
			"buffer":0,
			"byteLength":504,
			"byteOffset":16728,
			"target":34962
		},
		{
			"buffer":0,
			"byteLength":504,
			"byteOffset":17232,
			"target":34962
		},
		{
			"buffer":0,
			"byteLength":336,
			"byteOffset":17736,
			"target":34962
		},
		{
			"buffer":0,
			"byteLength":120,
			"byteOffset":18072,
			"target":34963
		}
	],
	"samplers":[
		{
			"magFilter":9729,
			"minFilter":9987
		}
	],
	"buffers":[
		{
			"byteLength":18192,
			"uri":"Stage.bin"
		}
	]
}
